HIERARCHY
ROOT hip
{
	OFFSET 0.000000 0.000000 0.000000 
	CHANNELS 6 Xposition Yposition Zposition Xrotation Zrotation Yrotation
	JOINT abdomen
	{
		OFFSET 0.000000 3.402643 0.000000 
		CHANNELS 3 Xrotation Zrotation Yrotation
		JOINT chest
		{
			OFFSET 0.000000 8.438565 -0.680529 
			CHANNELS 3 Xrotation Zrotation Yrotation
			JOINT neck
			{
				OFFSET 0.000000 10.207942 -0.272212 
				CHANNELS 3 Xrotation Zrotation Yrotation
				JOINT head
				{
					OFFSET 0.000000 3.130431 0.000000 
					CHANNELS 3 Xrotation Zrotation Yrotation
					End Site
					{
						OFFSET 0.000000 3.130435 0.000000 
					}
				}
			}
			JOINT lCollar
			{
				OFFSET 3.470700 6.669187 -0.816635 
				CHANNELS 3 Yrotation Zrotation Xrotation
				JOINT lShldr
				{
					OFFSET 3.198488 0.000000 0.000000 
					CHANNELS 3 Zrotation Yrotation Xrotation
					JOINT lForeArm
					{
						OFFSET 10.139888 0.000000 0.000000 
						CHANNELS 3 Yrotation Zrotation Xrotation
						JOINT lHand
						{
							OFFSET 8.370511 0.000000 0.000000 
							CHANNELS 3 Zrotation Yrotation Xrotation
							End Site
							{
								OFFSET 4.083176 0.000000 0.000000 
							}
						}
					}
				}
			}
			JOINT rCollar
			{
				OFFSET -3.470700 6.669187 -0.816635 
				CHANNELS 3 Yrotation Zrotation Xrotation
				JOINT rShldr
				{
					OFFSET -3.198488 0.000000 0.000000 
					CHANNELS 3 Zrotation Yrotation Xrotation
					JOINT rForeArm
					{
						OFFSET -10.139888 0.000000 0.000000 
						CHANNELS 3 Yrotation Zrotation Xrotation
						JOINT rHand
						{
							OFFSET -8.370511 0.000000 0.000000 
							CHANNELS 3 Zrotation Yrotation Xrotation
							End Site
							{
								OFFSET -4.083176 0.000000 0.000000 
							}
						}
					}
				}
			}
		}
	}
	JOINT lThigh
	{
		OFFSET 5.308129 -1.633274 1.361059 
		CHANNELS 3 Xrotation Zrotation Yrotation
		JOINT lShin
		{
			OFFSET -2.041588 -20.007561 0.000000 
			CHANNELS 3 Xrotation Zrotation Yrotation
			JOINT lFoot
			{
				OFFSET 0.000000 -19.190928 -1.224953 
				CHANNELS 3 Xrotation Yrotation Zrotation
				End Site
				{
					OFFSET 0.000000 -2.449906 4.627600 
				}
			}
		}
	}
	JOINT rThigh
	{
		OFFSET -5.308129 -1.633274 1.361059 
		CHANNELS 3 Xrotation Zrotation Yrotation
		JOINT rShin
		{
			OFFSET 2.041588 -20.007561 0.000000 
			CHANNELS 3 Xrotation Zrotation Yrotation
			JOINT rFoot
			{
				OFFSET 0.000000 -19.190928 -1.224953 
				CHANNELS 3 Xrotation Yrotation Zrotation
				End Site
				{
					OFFSET 0.000000 -2.449906 4.627600 
				}
			}
		}
	}
}
MOTION
Frames: 20
Frame Time: 0.033333
-1.718150 48.525959 2.404136 1.996061 -3.740615 -12.292604 0.000000 0.000000 0.000000 2.300288 1.864912 1.065161 -15.776458 4.863082 -0.519026 11.736311 5.659544 -2.296162 -1.320496 -2.081493 5.206803 -55.045403 36.121372 -30.251034 -52.006500 2.792156 16.859009 -9.636531 -0.303500 -3.128160 6.995756 10.185218 4.580018 39.724171 -33.722843 -14.910919 65.176224 -1.213434 20.939308 -4.203342 3.262478 -3.660117 10.705812 17.738367 15.759315 8.110716 -1.552947 16.406597 -10.756156 1.789157 -18.559099 -5.035261 -3.424709 -4.904463 23.787102 2.518429 -24.916662 -15.223484 -1.676666 12.270700 
-2.342331 48.520924 2.274592 2.502376 -2.949377 -13.817874 0.000000 0.000000 0.000000 1.983135 1.708721 1.006577 -16.495028 4.208876 -0.411200 12.806579 6.761006 -2.536489 -1.736141 -3.692918 4.518797 -60.948792 36.484909 -27.896143 -54.900799 2.299023 18.764898 -10.341953 -1.187767 -3.019276 7.574510 10.316426 3.879600 43.913464 -35.459141 -8.717639 67.135117 -0.228948 20.335136 -6.369853 3.916266 -3.807276 14.234944 16.726450 16.881495 1.002723 -1.769111 17.705477 -7.275007 1.198539 -18.297953 -6.293305 -3.589988 -4.955383 24.760693 2.770577 -23.160254 -16.248888 -1.620743 11.216048 
-2.956383 48.525841 2.280625 1.679327 -3.434357 -14.968937 0.000000 0.000000 0.000000 2.385130 1.835665 0.987073 -16.387863 4.423284 -0.901033 13.871467 6.751249 -2.536490 -2.125674 -4.130955 5.331546 -66.466095 36.640381 -23.543837 -59.886272 0.995250 18.175560 -6.904077 -0.546680 -3.209613 7.213585 11.111978 4.650211 49.980782 -35.738796 -7.465493 67.266190 0.147884 21.511927 -6.616575 4.910429 -3.857339 16.537251 16.998886 18.248335 -0.197926 -1.343693 17.521965 -6.815032 1.139820 -19.142019 -5.175317 -2.773271 -4.828386 24.650059 3.022563 -21.924086 -16.853142 -1.526828 10.211037 
-3.632797 48.525188 2.197519 1.546656 -3.552585 -16.311893 0.000000 0.000000 0.000000 2.531817 1.923565 0.948043 -15.963778 4.188781 -1.027645 13.930290 7.101865 -2.646627 -2.760404 -4.166386 5.612298 -70.616966 36.282536 -18.625277 -63.581268 -0.136739 19.582375 -6.595441 -1.340248 -3.157617 6.626125 11.522466 4.938801 56.038708 -36.567463 -6.339187 67.410065 0.853365 18.418310 -8.268739 4.819479 -3.980447 16.708635 17.510187 18.920134 1.228012 -0.936248 17.565086 -7.370130 1.354360 -20.324385 -5.022849 -1.998951 -4.510851 24.759686 3.174747 -20.987446 -17.454718 -1.426687 9.205603 
-4.311632 48.508228 2.141801 1.136273 -3.411151 -17.395454 0.000000 0.000000 0.000000 2.664467 1.953042 0.527703 -15.003812 3.583259 -1.154363 13.652744 7.376653 -2.352272 -3.679399 -4.875561 5.895144 -73.626076 35.438545 -15.026375 -66.930122 -0.477697 23.383114 -9.380917 -2.135287 -2.962028 5.558983 11.781602 5.270525 60.937931 -37.941097 -4.350287 67.799568 1.980274 12.719977 -8.092197 3.085638 -3.873808 17.310808 17.488708 19.155008 1.845714 -0.150271 17.626638 -7.618059 1.490362 -21.579651 -4.725310 -1.688980 -4.644873 25.168747 3.453094 -19.562933 -18.317196 -1.326674 8.101710 
-5.017362 48.521397 2.042816 0.973149 -2.952989 -18.590214 0.000000 0.000000 0.000000 2.776035 1.904295 0.078406 -14.161588 3.250728 -1.574719 13.468120 6.939466 -1.927173 -4.559628 -5.193944 6.134639 -73.834610 33.981541 -8.212008 -69.685852 -1.467220 25.603149 -9.729820 -0.747314 -3.082162 4.799469 11.835149 5.517354 64.228912 -39.191643 -0.882674 66.750725 3.283494 8.634553 -6.619259 2.097054 -3.739534 17.336250 16.998386 18.782997 2.286865 0.919762 19.073856 -7.178813 1.450106 -22.881413 -4.700724 -1.452741 -4.618076 25.397011 3.655183 -18.577251 -18.976656 -1.183649 7.003173 
-5.847138 48.488701 1.958007 0.708202 -3.340477 -20.016203 0.000000 0.000000 0.000000 2.997333 2.119115 -0.283371 -13.006688 3.250522 -1.701468 13.472784 6.941049 -1.485042 -5.030136 -4.667635 6.660918 -72.736076 32.821941 -0.948937 -73.715790 -1.449434 33.646690 -3.923372 2.674764 -3.457989 4.296002 12.451225 5.912893 65.226479 -40.699207 3.899750 65.817207 4.255399 11.148421 -3.531612 1.259052 -3.579150 17.542555 16.979635 18.997663 2.568327 2.430586 23.522289 -2.958685 0.680479 -24.445244 -4.113424 0.010077 -3.827750 25.268805 3.342106 -18.048491 -19.496868 -1.063908 6.098227 
-6.510796 48.479607 1.834507 0.241720 -3.208948 -21.862350 0.000000 0.000000 0.000000 3.416544 2.050751 -0.312649 -11.780377 3.553263 -1.624029 13.484115 6.229329 -1.100007 -5.160113 -4.205416 7.493464 -70.637497 30.575594 5.336709 -76.769585 -1.104861 41.140854 3.583819 9.587133 -3.399280 3.963010 12.672693 6.776231 64.739685 -41.062828 8.879883 64.487778 4.555812 20.095827 2.337928 0.167720 -3.384632 17.169344 16.051456 18.337259 2.787791 3.769747 30.242285 2.345249 -0.479852 -24.508266 -3.747194 0.497833 -3.541982 25.462677 3.247609 -16.699017 -19.967062 -0.897730 5.016616 
-7.130135 48.433968 1.839538 -0.575793 -2.793770 -23.956491 0.000000 0.000000 0.000000 3.838911 1.972637 -0.253756 -10.271769 3.368274 -1.300600 14.005035 5.878117 -0.941571 -4.976188 -3.821386 8.359442 -67.908714 28.174459 9.641474 -78.177536 -1.239561 43.187767 8.101243 6.159610 -3.335448 4.020773 12.644335 7.639350 63.712631 -40.900742 13.169777 62.705605 5.050874 24.304443 8.007860 0.046854 -3.208297 7.558091 16.796587 14.616477 21.618599 5.252668 36.132710 -0.337989 0.090102 -24.221338 -3.319469 0.350934 -3.456772 26.193493 3.105445 -14.835533 -20.774427 -0.761212 4.074434 
-7.656188 48.432240 1.730011 -0.714520 -3.153990 -24.903656 0.000000 0.000000 0.000000 3.813730 2.285028 -0.605766 -7.782233 3.348722 -1.320101 13.715850 6.112845 -0.686986 -5.610512 -2.785407 8.401851 -65.802711 25.912655 12.634047 -78.368622 -1.772756 41.722759 9.389301 0.689867 -3.686850 3.549318 12.909555 7.562712 61.745155 -41.818008 16.790228 61.587486 6.020554 21.342588 7.246253 -1.524382 -3.362106 1.717011 16.381723 11.762461 29.763062 7.204478 43.091286 0.827064 -0.139981 -21.673979 -2.659655 1.363834 -2.995081 25.708563 2.999475 -14.999907 -20.832314 -0.686075 3.469309 
-8.134378 48.466473 1.800466 -1.603293 -3.206290 -26.255266 0.000000 0.000000 0.000000 4.100883 2.343559 -0.733007 -5.880721 2.968318 -0.977781 14.529486 6.425583 -0.451861 -5.807465 -2.850639 9.001514 -62.849735 23.471075 15.053117 -78.528305 -2.588053 37.242687 6.796731 -2.271279 -3.758092 3.163477 13.273274 8.157442 59.594505 -41.756397 18.494783 60.329796 6.128271 24.007421 5.963724 -0.117995 -3.291714 -0.928115 15.798820 9.527506 35.606499 7.840471 36.464863 -0.916898 0.190492 -21.716362 -1.264390 1.381837 -3.036449 25.239170 3.008969 -13.675397 -21.095806 -0.510190 2.645158 
-8.556678 48.492241 1.879545 -2.164397 -2.938501 -27.774361 0.000000 0.000000 0.000000 4.437392 2.265481 -0.644800 -5.104599 2.909931 -0.713459 15.145694 6.064379 -0.284713 -5.653937 -2.985300 9.656019 -60.593266 21.195196 15.948075 -79.251411 -3.044963 33.214497 1.173144 -2.257742 -3.472186 2.678010 13.422232 8.905304 57.130676 -41.195580 20.705683 59.663368 6.234489 27.826817 2.047879 -2.009867 -3.470214 -2.041131 15.085665 7.828919 37.225109 7.436318 27.019617 -5.142019 0.946903 -20.287783 -0.438244 1.432684 -2.740076 24.969513 2.518103 -12.802004 -21.318859 -0.480200 2.248392 
-8.851456 48.492378 1.956854 -2.273192 -2.540650 -28.507481 0.000000 0.000000 0.000000 4.457266 2.275123 -0.879376 -4.405665 2.724310 -0.850506 14.976629 5.615233 -0.038875 -6.092074 -2.724160 9.743531 -59.575539 19.768225 16.024761 -79.484909 -3.379086 32.536827 -0.609981 -0.926626 -3.407959 2.027954 13.489005 9.026357 54.375824 -41.133179 21.308094 59.489212 6.352675 27.534573 0.786226 -2.476477 -3.488191 -4.422966 13.569735 5.876124 38.076244 6.974360 22.636761 -7.552710 1.299367 -19.334415 -0.371366 1.181405 -2.769622 25.042200 2.447337 -11.992814 -21.587814 -0.371470 1.888417 
-9.157310 48.508583 2.083747 -2.183293 -1.993619 -30.127739 0.000000 0.000000 0.000000 4.417850 2.323951 -0.869614 -3.725109 1.845698 -0.136648 14.458885 5.615232 0.059268 -6.204461 -3.010587 9.655293 -59.015182 19.390863 14.918257 -79.352386 -3.397660 33.905270 -0.378624 0.114219 -3.438305 2.351423 12.702494 8.915701 53.248932 -40.834789 19.877432 58.586174 6.233556 26.359842 0.957458 -1.439152 -3.461093 -6.502978 11.393990 5.091123 36.521774 5.813205 26.271286 -8.905309 1.375966 -17.751812 -0.327526 0.949890 -2.466495 24.908445 2.117037 -10.646902 -21.856781 -0.304623 1.491053 
-9.404844 48.492210 2.216585 -2.357036 -1.710235 -30.864965 0.000000 0.000000 0.000000 4.406078 2.440953 -1.104178 -2.365529 1.464842 -0.087862 13.206985 5.263620 0.255523 -7.058548 -2.940203 9.656872 -59.904194 19.284859 12.677191 -78.640556 -3.225040 36.355976 1.153227 1.303139 -3.479328 2.445634 12.404531 8.824418 51.612087 -40.575859 18.422556 58.887943 6.097544 24.660686 0.707122 -1.825920 -3.468414 -8.435885 9.499758 4.320425 34.979679 4.455860 26.992544 -10.326967 1.428979 -15.691323 -0.037340 0.784684 -2.395298 24.965483 1.940802 -10.017044 -22.210394 -0.276504 1.306330 
-9.663989 48.457928 2.379706 -2.338027 -1.270131 -31.786158 0.000000 0.000000 0.000000 4.365003 2.450857 -0.918800 -2.576610 1.269530 0.068559 13.449773 4.892578 0.030023 -7.204300 -3.808113 9.523478 -59.462234 19.169344 11.377910 -78.691208 -3.316827 37.014889 2.580909 2.087503 -3.501039 1.995260 12.435041 8.830088 49.383102 -39.923931 16.858009 59.898449 5.903858 23.464638 0.819421 -1.740851 -3.470861 -9.780371 7.739882 3.779093 31.339483 2.633313 25.865150 -11.672153 1.356820 -12.886728 -0.121444 0.520221 -2.330217 25.227016 1.745113 -9.350475 -22.670721 -0.232003 1.154380 
-9.930200 48.386513 2.592452 -2.145183 -1.050767 -32.799297 0.000000 0.000000 0.000000 4.385318 2.402035 -0.918390 -1.899243 1.289052 0.224772 12.318709 4.560525 0.176778 -7.464653 -3.838762 9.565945 -60.529110 19.656296 9.429983 -78.910446 -3.372955 36.268463 3.419836 2.729325 -3.511471 2.091546 12.324577 8.874993 47.677757 -39.449718 15.118354 61.804558 5.657824 21.571886 0.267566 -2.781846 -3.495490 -12.682211 6.248250 3.238744 29.622070 0.690025 25.576927 -10.041919 0.996664 -11.022006 -0.156021 0.574926 -2.025374 25.577940 1.471719 -8.657465 -23.237898 -0.223165 1.070517 
-10.276236 48.264473 2.821991 -1.916203 -1.153767 -33.699196 0.000000 0.000000 0.000000 4.590970 3.007264 -1.094805 -1.165658 0.439409 0.810598 11.352938 4.892555 0.176807 -7.938688 -4.729988 10.075130 -60.584515 20.490929 7.802021 -79.241798 -3.213689 33.741264 3.295172 3.004892 -3.500351 2.374088 11.593597 9.216247 47.572720 -37.357346 12.829381 62.564484 5.363764 20.558941 0.615203 -1.596603 -3.472971 -16.330324 5.260622 3.324300 29.354301 -1.485491 25.829853 -8.311210 0.542211 -6.889624 -0.146398 1.070921 -1.532945 26.116262 1.144355 -8.279960 -23.892677 -0.211624 1.010980 
-10.578369 48.159168 3.073392 -1.050740 -0.531035 -34.523235 0.000000 0.000000 0.000000 4.470612 2.362924 -0.996857 -2.537651 0.830003 0.771686 11.669971 5.107189 0.549920 -7.245565 -2.752590 9.787459 -63.446617 20.640295 7.768261 -79.461502 -3.171776 32.088501 3.180192 2.498588 -3.516106 2.105067 11.549944 9.059968 47.214745 -34.627533 10.090932 61.884212 4.910851 19.279181 0.480970 -2.602593 -3.485443 -19.879089 4.227473 3.048654 26.848665 -3.717875 24.559772 -5.405840 0.107752 -1.739871 -0.920585 0.833854 -1.735709 26.586996 1.447785 -7.390223 -24.705509 -0.154369 0.651074 
-10.945322 48.080452 3.396514 -0.326257 -0.461745 -35.391979 0.000000 0.000000 0.000000 4.207735 2.411773 -0.957827 -2.088318 1.357259 0.889116 11.139768 4.218242 0.891293 -7.304413 -2.415765 9.271643 -64.634972 22.006821 7.798444 -79.465698 -3.087772 30.577221 2.932343 1.934132 -3.517038 2.797447 11.766950 8.433160 46.660240 -33.880573 7.942791 63.349751 4.484579 17.934998 -0.753698 -1.592011 -3.493761 -21.558239 3.739597 2.865657 22.717323 -5.381087 24.495766 -1.782141 0.001977 2.637858 -0.826042 1.273372 -1.341045 26.335932 1.336594 -6.610038 -25.175135 -0.145619 0.440451 
